<?xml version="1.0" encoding="utf-8"?>
<!-- Generator: Adobe Illustrator 22.1.0, SVG Export Plug-In . SVG Version: 6.00 Build 0)  -->
<svg version="1.1" id="Layer_1" xmlns="http://www.w3.org/2000/svg" xmlns:xlink="http://www.w3.org/1999/xlink" x="0px" y="0px"
	 viewBox="0 0 800 800" style="enable-background:new 0 0 800 800;" xml:space="preserve">
<style type="text/css">
	.st0{fill:none;stroke:url(#SVGID_1_);stroke-width:16;stroke-linecap:round;stroke-miterlimit:10;}
	.st1{fill:none;stroke:url(#SVGID_2_);stroke-width:16;stroke-linecap:round;stroke-miterlimit:10;}
	.st2{fill:none;stroke:url(#SVGID_3_);stroke-width:16;stroke-linecap:round;stroke-miterlimit:10;}
	.st3{fill:none;stroke:url(#SVGID_4_);stroke-width:16;stroke-linecap:round;stroke-miterlimit:10;}
	.st4{fill:none;stroke:url(#SVGID_5_);stroke-width:16;stroke-linecap:round;stroke-miterlimit:10;}
	.st5{fill:none;stroke:url(#SVGID_6_);stroke-width:16;stroke-linecap:round;stroke-miterlimit:10;}
	.st6{fill:none;stroke:url(#SVGID_7_);stroke-width:16;stroke-linecap:round;stroke-miterlimit:10;}
	.st7{fill:none;stroke:url(#SVGID_8_);stroke-width:16;stroke-linecap:round;stroke-miterlimit:10;}
	.st8{fill:none;stroke:#F2643C;stroke-width:20;stroke-miterlimit:10;}
	.st9{fill:url(#SVGID_9_);}
	.st10{fill:url(#SVGID_10_);}
	.st11{fill:none;stroke:url(#SVGID_11_);stroke-width:16;stroke-miterlimit:10;}
	.st12{fill:none;stroke:url(#SVGID_12_);stroke-width:16;stroke-miterlimit:10;}
</style>
<g>
	
		<linearGradient id="SVGID_1_" gradientUnits="userSpaceOnUse" x1="253.8733" y1="649.6619" x2="253.8733" y2="616.7858" gradientTransform="matrix(0.9977 -6.760000e-02 -6.760000e-02 -0.9977 181.5381 807.5807)">
		<stop  offset="0" style="stop-color:#F8A17E"/>
		<stop  offset="0.4857" style="stop-color:#F2643C"/>
	</linearGradient>
	<line class="st0" x1="400.8" y1="166.5" x2="383.2" y2="150.8"/>
	
		<linearGradient id="SVGID_2_" gradientUnits="userSpaceOnUse" x1="368.8288" y1="523.41" x2="336.3738" y2="523.41" gradientTransform="matrix(0.9978 -6.620000e-02 -6.620000e-02 -0.9978 182.7852 802.4703)">
		<stop  offset="0" style="stop-color:#F8A17E"/>
		<stop  offset="0.4857" style="stop-color:#F2643C"/>
	</linearGradient>
	<line class="st1" x1="508.7" y1="264.7" x2="491.2" y2="249"/>
	
		<linearGradient id="SVGID_3_" gradientUnits="userSpaceOnUse" x1="183.2358" y1="510.4504" x2="183.2358" y2="542.4193" gradientTransform="matrix(0.9953 -9.710000e-02 -9.710000e-02 -0.9953 266.4287 803.7043)">
		<stop  offset="0" style="stop-color:#F8A17E"/>
		<stop  offset="0.4857" style="stop-color:#F2643C"/>
	</linearGradient>
	<line class="st2" x1="389.8" y1="270.7" x2="405.5" y2="253.2"/>
	
		<linearGradient id="SVGID_4_" gradientUnits="userSpaceOnUse" x1="275.6536" y1="636.9207" x2="275.6536" y2="604.9507" gradientTransform="matrix(0.9945 -0.1051 -0.1051 -0.9945 286.7163 800.5567)">
		<stop  offset="0" style="stop-color:#F8A17E"/>
		<stop  offset="0.4857" style="stop-color:#F2643C"/>
	</linearGradient>
	<line class="st3" x1="487.8" y1="162.9" x2="503.4" y2="145.2"/>
	
		<linearGradient id="SVGID_5_" gradientUnits="userSpaceOnUse" x1="263.0351" y1="665.908" x2="263.0351" y2="626.357" gradientTransform="matrix(0.9961 -8.790000e-02 -8.790000e-02 -0.9961 237.5113 802.8339)">
		<stop  offset="0" style="stop-color:#F8A17E"/>
		<stop  offset="0.4857" style="stop-color:#F2643C"/>
	</linearGradient>
	<line class="st4" x1="443.3" y1="147.9" x2="442.2" y2="124.3"/>
	
		<linearGradient id="SVGID_6_" gradientUnits="userSpaceOnUse" x1="254.0727" y1="482.8935" x2="254.0727" y2="522.4431" gradientTransform="matrix(0.9962 -8.710000e-02 -8.710000e-02 -0.9962 240.6466 803.3163)">
		<stop  offset="0" style="stop-color:#F8A17E"/>
		<stop  offset="0.4857" style="stop-color:#F2643C"/>
	</linearGradient>
	<line class="st5" x1="450.5" y1="292.2" x2="449.4" y2="268.7"/>
	
		<linearGradient id="SVGID_7_" gradientUnits="userSpaceOnUse" x1="211.0524" y1="583.0308" x2="250.6207" y2="583.0308" gradientTransform="matrix(0.9978 -6.690000e-02 -6.690000e-02 -0.9978 183.0916 808.9221)">
		<stop  offset="0" style="stop-color:#F8A17E"/>
		<stop  offset="0.4857" style="stop-color:#F2643C"/>
	</linearGradient>
	<line class="st6" x1="362.6" y1="212.4" x2="386.2" y2="211.1"/>
	
		<linearGradient id="SVGID_8_" gradientUnits="userSpaceOnUse" x1="279.2734" y1="567.4104" x2="239.7611" y2="567.4104" gradientTransform="matrix(0.9927 -0.1207 -0.1207 -0.9927 329.3872 799.31)">
		<stop  offset="0" style="stop-color:#F8A17E"/>
		<stop  offset="0.4857" style="stop-color:#F2643C"/>
	</linearGradient>
	<line class="st7" x1="506.8" y1="205.3" x2="530.3" y2="204.1"/>
	<circle class="st8" cx="398.8" cy="400" r="280"/>
	
		<linearGradient id="SVGID_9_" gradientUnits="userSpaceOnUse" x1="437.146" y1="459.034" x2="155.798" y2="459.034" gradientTransform="matrix(1 0 0 -1 0 801.433)">
		<stop  offset="0" style="stop-color:#F8A17E"/>
		<stop  offset="0.4857" style="stop-color:#F2643C"/>
	</linearGradient>
	<path class="st9" d="M437.1,380.9c-5.9,9-38.2,63.4-44.5,72.7c-4.5,6.7-6.3,9.2-14.3,6.2c-16.6-6.2-34-13.5-50.3-20.6
		c-6.1-2.7-22-10.8-25.1-9.4c-2,0.9-3.7,3.3-4.7,5.5c-5,11.3-11.3,26.5-15,37.5c-1.4,4.3-4.1,12.3-9.6,13
		c-3.8,0.5-11.5-4.7-14.1-6.8c-4.6-3.7-78.1-48.6-95-59.5c-1.9-1.2-6.6-1.5-6.9-1.8l-1.9-4.2c38.5-61.4,106.3-169.7,119.2-191.9
		c17.5-30.1,48.2-30.9,68.1,0.1c9.9,15.4,48.5,82,91,153.7C435.2,377.3,437.1,380.9,437.1,380.9z"/>
	
		<linearGradient id="SVGID_10_" gradientUnits="userSpaceOnUse" x1="444.995" y1="321.3101" x2="681.25" y2="321.3101" gradientTransform="matrix(1 0 0 -1 0 801.433)">
		<stop  offset="0" style="stop-color:#F8A17E"/>
		<stop  offset="0.4857" style="stop-color:#F2643C"/>
	</linearGradient>
	<path class="st10" d="M445,388.3l137.8,217.5c0,0,45.4-35.2,77.9-115.8c6.3-15.6,20.5-65.9,20.5-65.9c-7-4-20.5-8.5-29,0.8
		c-4,4.4-30,30-37.2,37.1c-6.8,6.7-23.3,24.8-30,18.1c-5-5-25.3-29.2-31.7-37.5c-7.5-9.7-17.5-31.5-31.2-23.5
		c-5.9,3.4-8.1,11.4-13.3,9.5c-2.9-1.1-44.5-70.6-47-74L445,388.3z"/>
	<circle class="st8" cx="446.2" cy="208" r="37.5"/>
	
		<linearGradient id="SVGID_11_" gradientUnits="userSpaceOnUse" x1="448.0758" y1="365.1683" x2="151.1366" y2="365.1683" gradientTransform="matrix(1 0 0 -1 0 801.433)">
		<stop  offset="0" style="stop-color:#F8A17E"/>
		<stop  offset="0.4857" style="stop-color:#F2643C"/>
	</linearGradient>
	<path class="st11" d="M156.4,418.7c3,2.6,96.1,59.5,101.4,63.7c2.7,2.2,10.7,7.5,14.5,7c5.7-0.7,8.4-9,9.9-13.4
		c3.8-11.3,10.3-27,15.4-38.6c1-2.3,2.7-4.7,4.8-5.7c3.1-1.4,19.6,6.9,25.9,9.7c16.9,7.3,34.8,14.9,51.9,21.2
		c8.3,3.1,10.1,0.5,14.8-6.4C402,446,439,383.5,441.8,380"/>
	
		<linearGradient id="SVGID_12_" gradientUnits="userSpaceOnUse" x1="435.9088" y1="459.3908" x2="676.1757" y2="459.3908" gradientTransform="matrix(1 0 0 -1 0 801.433)">
		<stop  offset="0" style="stop-color:#F8A17E"/>
		<stop  offset="0.4857" style="stop-color:#F2643C"/>
	</linearGradient>
	<path class="st12" d="M442.9,379.2c10-18,30-61.4,35.1-72.9c8.4-18.9,29.7-19.7,40.5,0c14.2,25.8,48.6,72.3,53.3,79.4
		c5.6,8.4,19,9.5,23-2.5c1-3,22.6-57.3,26-64.8c8.4-18.9,29.7-19.7,40.5,0c2.2,4.1,5,8.6,8,13.5"/>
	<path class="st8" d="M123.8,458c10-16,132-210,150-241s49.7-31.9,70.3,0.1c22.5,35,221.7,381.9,240.7,388.9"/>
</g>
</svg>
